<svg id="Layer_1" data-name="Layer 1" xmlns="http://www.w3.org/2000/svg" width="474.01" height="446.12" viewBox="0 0 474.01 446.12"><defs><style>.cls-1{fill:#373a43;}.cls-2{fill:#45484c;}.cls-3{fill:#d8db49;}.cls-4{fill:#585a4c;}.cls-5{fill:#353842;}.cls-6{fill:#363943;}.cls-7{fill:#d7718c;}.cls-8{fill:#d8718c;}.cls-9{fill:#ce6e88;}.cls-10{fill:#dadadc;}</style></defs><path class="cls-1" d="M297.9,9.24C352.76,16,394.67,45.67,430.2,85.55c29.07,32.62,43.56,71.78,48.54,115,3.7,32-6.85,60.75-19.72,88.63-15.91,34.48-30.2,70.26-60.53,95.84,4.72,6.95,11.13,3.33,16.28,4.35,14.94,3,20.07,13.73,12.32,26.92-14.31,24.33-40.85,33.44-65.94,19.55-17-9.43-30.28-11.08-46.58,1.55-21.59,16.72-42.44,6.68-62-6.56-.77-3.37,1.3-4.87,3.92-6,23.36,7,44.65,5.66,67.25-6.86,14.67-8.13,32.68.08,48.39,7.27,14.09,6.45,24.52,2.91,33.13-9.49,6.3-9.08,4.47-13.34-6.52-15-2.29-.34-4.66,0-7-.27-7.21-.76-16.32,1.47-19-8.17-2.22-8,4-12.9,9.55-17.12,13.76-10.43,22.65-24.46,31.46-39,13.32-22,24-45.24,33.42-68.84,25.12-63.12,11.16-121-30.35-172.21-28.19-34.77-63.41-61.24-107.69-73.48-4.47-1.24-8.73-3.27-11.5-7.39A4.75,4.75,0,0,1,297.9,9.24Z" transform="translate(-5.48)"/><path class="cls-1" d="M297.9,9.24c0,.83,0,1.66,0,2.49-22.37,8.85-45.67,6.91-68.45,3.86s-43.3.1-63.4,11.84c-25.54,14.91-53.09,27-76.24,45.25-46,36.38-72.14,81.78-60.06,143.63,8.74,44.74,20.41,88.1,43.67,127.7,2.35,4,4.53,8.15,3.86,13.09-.82,3.86-3.37,6.09-6.94,7.33-7.86,3.41-21.42.62-21.53,12.78-.1,11.24,8.29,19.94,19,25.11,5.72,2.75,12.55,2.72,17.63,7.08,1.06,9.47-7.6,3.65-10.6,6.74-17.57.7-31.61-6.4-41.86-20.27-14.85-20.08-13.66-28.52,8.08-39.64,12.33-6.32,13.79-12,7.33-23.48C22.8,287.24,12.12,237.09,6,186c-2.76-23.08,5.65-44.65,17.74-64.19C63.1,58.19,124.6,24.11,193.31,5.08,226.28-4,263.29.21,297.9,9.24Z" transform="translate(-5.48)"/><path class="cls-2" d="M74.87,416.14l10.34-5.59c4.27-5.3,10.15-4.57,16-4.36,47.54,1.65,94.25,12.51,141.93,13,5.23.05,12.2-.09,12.71,8.31l-3.23,3.31c-50.88-1.11-101.3-7.16-151.72-13.47C92.3,416.25,83.54,416.5,74.87,416.14Z" transform="translate(-5.48)"/><path class="cls-3" d="M255.83,427.49c-16.83-8.32-35-2.57-52.53-4.88-39.21-5.18-78.71-8.17-118.09-12.06-17-.89-30.81-6.13-38.83-23.11-6-12.67-6.26-21.16,9.62-24.22,3.85-.74,7.74-1.28,11.61-1.91a6.9,6.9,0,0,0,6.07,1.41c2.12-.36,4.2.17,6.29,0-1.45-2-3.77-3.2-4.83-5.53-27.59-45-42.26-94.31-51.41-146C14.45,158.8,42.57,95.1,92.32,64.54,119.38,47.92,147.46,33,175.06,17.18c9.91-5.66,20.68-6.81,31.84-6.92,28.24-.26,56.55,4.86,84.76-1,1.84-.38,4.16,1.59,6.26,2.47,7,2.79,13.85,5.79,20.9,8.32,79.56,28.6,146.87,99.09,145.6,199.25a115.44,115.44,0,0,1-10.84,47c-12.34,26.76-26.56,52.65-39.73,79-7.75,15.5-19.79,26.91-33.4,37.06-3.1,2.32-7.14,4.53-5.53,9.67,1.74,5.55,6.52,3.63,10.21,3.83,5.78.31,11.6.11,17.4.1,5.22,0,10.68-.63,13,5.81,2.11,5.78-.89,10.14-4.07,14.32-14.47,19-23.69,21.44-45.48,11.34-20.77-9.62-40.95-12.43-60.17,3.53-9.48,7.87-19.27,8.59-30.32,2.47C269.63,430.16,263.14,427,255.83,427.49Z" transform="translate(-5.48)"/><path class="cls-4" d="M75.14,357.22l19.79,9.19c-13.61,3.13-20.61-.24-27.32-5.1C70.67,361,73.7,360.56,75.14,357.22Z" transform="translate(-5.48)"/><path class="cls-5" d="M209.31,290.65c36.43-1.12,72.86,1.21,109.26-5,30.11-5.18,40.72,10.32,29.54,40.11-8.35,22.27-25.38,35.76-47.68,42-11.29,3.17-18.75,8.63-24.91,18.86-17,28.25-54.22,34.87-76.28,9.46-18.3-21.07-37.43-39.19-60.35-54.72-15.37-10.43-12.43-28.84-11.43-45,.49-8.05,7.63-5.51,12.25-5.56C162.9,290.52,186.11,290.65,209.31,290.65Z" transform="translate(-5.48)"/><path class="cls-6" d="M287.57,212c-3.28-28.15,7.56-50.9,33.2-65.87,17.81-10.39,36.24-10.95,54.47-.59,5.53,3.13,10.58,7.21,16.3,9.89,31.64,14.85,36,41.55,31.93,72.09-2.83,21.16-37.28,48.68-62.75,49.85-15.28.7-30.1-2.62-43.93-8.48C296.1,260.17,281.9,247.73,287.57,212Z" transform="translate(-5.48)"/><path class="cls-1" d="M192,234.26c-14.33,6.17-21.15-2.49-29-10.71-7.69-8-11.83-20.82-25.38-21.73-12.38-.84-23,3-29.27,14.53-4.1,7.53-11.52,13.27-17.94,8.37-6.81-5.19-.34-13.63,3.84-19.2,16.53-22,62.78-19.59,83.69,4.35C184,216.78,189.35,224.32,192,234.26Z" transform="translate(-5.48)"/><path class="cls-7" d="M196.85,302.63c25-3.18,24.89-3.19,24.37,22-.2,9.83-.32,19.68.11,29.49.25,5.63-3.05,14.53,7.45,14,10.28-.54,5.94-9.45,6.17-14.77.61-14.44.48-28.92.18-43.38-.18-8.59,5.22-9.72,11.34-8.71,6.58,1.08,17.78-5,18.75,6.08,2.41,27.64,2.55,55.32-11.83,80.88-7.12,12.66-15.81,14.58-28.5,8.44-15-7.29-23-19-24.48-35.11-1.69-18.41-2.65-36.88-3.93-55.32-1.07-.91-1.38-1.74-.91-2.48S196.44,302.63,196.85,302.63Z" transform="translate(-5.48)"/><path class="cls-8" d="M329.63,308.41c-.61,19-18.69,41-37.12,47.23-6.39,2.16-8.6,1-8.53-5.49,0-5.23,0-10.45,0-15.68-.24-47.1-2.65-30.62,37.83-38.16C333.42,294.14,327.86,304.31,329.63,308.41Z" transform="translate(-5.48)"/><path class="cls-9" d="M196.85,302.63c-.12,1.18-.24,2.36-.37,3.55-6.51-1.27-9.84,1.07-10.09,8-.18,5.18-.53,10.54-2,15.44-2,6.5,2,17.21-4,18.91-8.11,2.33-15.8-5.4-22.8-10.46-8.21-5.94-10.21-15.14-12-24.34s1.06-14.55,11.5-14.47C170.48,299.39,183.84,298.8,196.85,302.63Z" transform="translate(-5.48)"/><path class="cls-10" d="M304.53,209C298,183.4,314,166,335,151c4.78-3.41,9.84-6,16-5.89,20.66.2,57.76,37.93,58.32,59.39.77,30.07-27.4,61.48-56.22,62.68C321.84,268.5,305.6,250,304.53,209Z" transform="translate(-5.48)"/><path class="cls-5" d="M344.8,246.5c-27.69-.42-33.65-8.62-32.9-45.34.32-15.76,26-38.6,43.24-38.51,22.37.12,36.44,17.78,36.29,45.57C391.29,233.5,374.9,247,344.8,246.5Z" transform="translate(-5.48)"/></svg>