<?xml version="1.0" encoding="utf-8"?>
<!-- Generator: Adobe Illustrator 25.4.0, SVG Export Plug-In . SVG Version: 6.00 Build 0)  -->
<svg version="1.1" id="Layer_1" xmlns="http://www.w3.org/2000/svg" xmlns:xlink="http://www.w3.org/1999/xlink" x="0px" y="0px"
	 viewBox="0 0 316 122" style="enable-background:new 0 0 316 122;" xml:space="preserve">
<style type="text/css">
	.st0{fill:none;}
	.st1{fill:#E17691;}
	.st2{fill:#3D424B;}
	.st3{fill:#353842;}
	.st4{fill:#F2EDC7;}
	.st5{fill:#3674A5;}
	.st6{fill:#E4E0BD;}
	.st7{fill:#FEFEFE;}
	.st8{fill:#D8728C;}
	.st9{fill:#1A1A1A;}
</style>
<g>
	<path class="st0" d="M97.5,55.7c-3.5-1.4-7.9,4-7.7,9.2c1.1,1.3,2.3,1.7,3.7,0.8c2.5-1.6,4.4-3.5,4.4-6.9c-0.2-0.2-0.5-0.5-0.7-0.7
		C97.4,57.2,97.5,56.4,97.5,55.7z"/>
	<path class="st0" d="M203.3,107.8h1.7l-0.9-4C203.9,105.1,203.6,106.4,203.3,107.8z"/>
	<path class="st0" d="M21.5,66.7c-0.2-0.4-0.9-0.6-1.6-1c0.5,2.9-1.5,5.2-0.1,7.6C21.9,71.2,22.6,68.8,21.5,66.7z"/>
	<path class="st0" d="M177.4,103.1c-0.4-0.2-0.7-0.2-0.7-0.2h-1.3v3.5h1.3c0.4,0,1.3-0.4,1.3-1.7C178,103.8,177.8,103.3,177.4,103.1
		z"/>
	<path class="st0" d="M245.6,51.8c-2.1-1.3-4.2-2.3-6.6-2.8c-2.2,1.6-1.3,3.8-1.4,6c2.2,1.2,4.3,2.6,6.5,3.5c2,0.8,3.6-0.5,3.6-2.7
		C247.7,54.2,247.1,52.8,245.6,51.8z"/>
	<path class="st0" d="M76.5,55c-0.4,0.2-0.7,0.5-1.2,1c-0.6-2.1-0.3-4.4-3-4.5c-3.7,2.7-5.4,9.6-3.5,13.5c1.5,3,4.2,3.4,6.4,0.9
		c2.8-3.2,3.2-7,3-11.2C77.5,54.8,76.9,54.8,76.5,55z"/>
	<path class="st0" d="M36.7,47.7c-2.2,2.8-2.3,5.5-0.3,8.1C37.2,53.1,37.6,50.6,36.7,47.7z"/>
	<path class="st1" d="M145.2,56.6c-5.3,6.6-5.1,14.7,0.7,21c0.8,0.9,1.6,1.8,2.4,2.8c0.4,0.5,0.5,1.1,0.8,1.7c-1.4,1.3-2-0.1-3.2-1
		c-0.4,0.4-0.9,0.9-1.1,1.1c0.6,2.6,2.5,2.9,3.7,4c1.9-0.3,3.9-0.5,5.7-1c2.8-0.8,4.8,0.3,6.4,2.4c0.3,0.4,0.7,0.8,1.3,1.3
		c2.3-1.8,4.1-4.6,7.5-4.1c1.4,0.2,2.9,0.1,4.2,0.6c2.1,0.8,3.8,0.6,5.5-0.8c0.6-0.5,1.4-0.9,2.1-1.4c0.4-1.7-0.5-2.6-2.3-2.9
		c0.6-0.9,0.9-1.6,1.3-2.2c1.5-1.8,1.8-3.8,2.1-6.1c0.7-4.8-0.4-9.3-1.7-13.8c-0.9-3.2-2.8-5.8-6.1-7.2c-2.9,1-5.8,1.5-8-1.5
		c-0.2-0.1-0.4-0.1-0.5-0.2c-1.9,0-3.6,0.5-5.1,1.6c-0.8,0.5-1.9,0.7-2.8,1c-0.9-0.6-1.6-1.1-2.2-1.6c-0.7,0.7-1.4,1.2-2,1.8
		c-2.1,1.8-4.4,1.2-6.7,0.7c-0.1,0.2-0.3,0.4-0.5,0.6c-0.1,0.5-0.1,1-0.4,1.5C146.1,55.5,145.6,56,145.2,56.6z M161.9,68.9
		c4.6-0.6,8.5-3,12.7-4.8c0.1-0.1,0.4,0.2,0.9,0.4c-4.1,3.2-8.7,4.7-13.8,5.3C161.8,69.2,161.9,68.9,161.9,68.9z M159.3,75.5
		c1.8,1.9,2.6,4.2,2.8,7.2c-1.1,0.1-1.9,0.2-2.6,0.3c-0.3-1.6-0.3-3.1-0.8-4.3c-0.5-1.3-1.5-2.3-2.3-3.5c-2,1.5-2.1,1.6-2.3,5.8
		c-0.4,0.1-0.9,0.2-1.3,0.3c-1-2.7-0.4-5.3,1.3-6.5C155.8,73.8,157.9,74,159.3,75.5z M155,68.9c-1.8,0.7-7-1.1-9.7-3.3
		C148.8,65.7,151.7,67.3,155,68.9z"/>
	<path class="st2" d="M179.1,86c1.5-0.8,2.8-1.8,4-2.7c0.4-2-0.1-3.3-1.9-4c1.1-1.5,2-3.1,3.3-4.3c4.1-4,7.2-8.7,9.6-13.9
		c4.4-9.1,8.8-18.2,14.7-26.4c1.1-1.5,2-3.1,3.2-5.1c-1.1,0.1-1.7,0.1-2.2,0.2c-2.7,0.6-5.3,1.4-8,2c-7.5,1.6-14.2,5-21,8.1
		c1.2-0.3,2.6-0.3,3.7-0.8c3.8-1.5,7.5-3.4,11.4-4.7c4.2-1.4,8.6-2.3,12.9-3.4c0.2-0.1,0.3-0.1,0.7-0.3c-0.1,0.3-0.2,0.5-0.2,0.7
		c-3.7,5.8-7.5,11.6-11.4,17.7c-0.7,0-1.7-0.1-2.8-0.2c0-1.1,0-2,0-3c-0.5,0-0.9,0-1.4,0c-0.2,0.7-0.4,1.4-0.7,2.4
		c-0.8-0.1-1.5-0.3-2.6-0.5c0.4-1.5,0.7-2.9,1.1-4.2c0.1-0.1,0.2-0.2,0.3-0.4c1.1,0.2,2.3,0.5,3.4,0.7c0-0.3,0-0.5,0-0.8
		c-0.9-0.3-1.9-0.6-2.9-0.9c0.1-0.9,0.1-1.8,0.2-2.8c-2-0.3-1.5,1.5-2.6,2.5c-0.8,0-1.9-0.1-3.1-0.2c0-0.6,0-1.1,0-1.8
		c-0.5,0-0.8-0.1-1.4-0.2c-0.6,2.1-1.2,4.1-1.9,6.3c-1.3-0.1-2.5-0.2-3.7-0.3c0-0.1,0.1-0.2,0.1-0.3c-1.4-0.7-2.8-1.4-4.4-2.2
		c0.6-0.6,1.2-1.2,1.8-1.9c-1.2-0.5-0.4-1.3-0.3-1.9c1-5.6,2.3-11.1,1.6-16.8c-0.1-0.7-0.2-1.6-0.7-2.1c-1.7-2.1-3.4-4.1-5.2-6
		c-3.3-3.3-7.3-5.5-12-5.4c-4.1,0.1-8.2,1.1-12,2.8c0.5,0.1,0.9,0.3,1.4,0.4c2.9-0.6,5.8-1.4,8.7-1.9c1.4-0.2,2.9-0.2,4.2,0.2
		c7,1.9,14.3,9.8,13.3,17.4c-0.3,2.2-1.2,3.4-3.2,3.7c-0.5-0.2-0.9-0.4-1.4-0.6c-1.6-1.5-3.1-3.2-3.4-5.5c-0.1-0.2-0.1-0.4-0.2-0.5
		c-0.3-0.2-0.7-0.4-1-0.6c0,0.1-0.1,0.2-0.2,0.2c0,0.7,0.1,1.3,0.1,2c0.1,0.1,0.1,0.2,0.2,0.3c0.8,3.7,3.3,5.7,6.9,5.5
		c0.5-0.1,1.1-0.2,1.6-0.2c-0.1,2-0.2,3.9-0.4,5.7c-2.2,1.5-2.2,1.5-2.1,6.3c1,0.3,2,0.7,3.3,1.1c0.3,0.6,0.6,1.3,1.1,2.3
		c-1,0.9-2,1.6-3.2,2c-0.6,0.2-1.1,0.4-1.7,0.6s-1.2,0.3-1.8,0.4c-0.3-0.3-0.6-0.6-1-0.8c-0.6-0.4-1.1-0.7-1.6-1.1
		c-0.4-0.1-0.8-0.3-1.1-0.4l0,0c-0.5,0-0.9,0-1.4,0c-1.4,0.3-2.8,0.6-4.1,0.8c-0.3,0.2-0.7,0.3-1,0.5c-0.4,0.1-0.8,0.3-1.3,0.4
		c-0.3-0.1-0.6-0.3-0.9-0.4c-0.1-0.1-0.3-0.2-0.4-0.4c-2.4-1-3.4-0.6-5.1,2c0.4,0.2,0.8,0.5,1.2,0.7c0.7-0.6,1.3-1.2,2-1.8
		c0.7,0.5,1.3,0.9,2.2,1.6c0.9-0.3,2-0.4,2.8-1c1.6-1.1,3.3-1.5,5.1-1.6c0.1-0.1,0.2-0.2,0.3-0.2c0.1,0.1,0.1,0.3,0.2,0.4
		c2.2,3.1,5.1,2.5,8,1.5c3.3,1.4,5.1,4,6.1,7.2c1.3,4.5,2.4,9,1.7,13.8c-0.3,2.3-0.7,4.3-2.1,6.1c-0.5,0.6-0.8,1.3-1.3,2.2
		c1.8,0.3,2.7,1.2,2.3,2.9c-0.7,0.5-1.5,0.8-2.1,1.4c-1.7,1.4-3.4,1.6-5.5,0.8c-1.3-0.5-2.8-0.4-4.2-0.6c0,0.2,0,0.5,0,0.8
		c1.3,0.3,2.6,0.6,3.8,1C175.2,87.3,177.2,87,179.1,86z M184.6,72.5c-0.4-4.3,0.1-7.3,1.8-11.9c0.9,0.3,1.8,0.6,3,1
		C187.6,65.2,188,69.5,184.6,72.5z M189.6,60.5c-1.1-0.4-1.9-0.7-3-1.1c0.4-1.5,0.8-3,1.3-4.7c1.1,0.2,2.1,0.4,3.3,0.6
		C190.7,57.2,190.2,58.8,189.6,60.5z M194.6,50c1,0.1,1.9,0.2,3.1,0.2c-0.9,1.7-1.6,3.1-2.4,4.8c-0.7-0.1-1.3-0.2-2-0.4
		C193.8,53,194.2,51.6,194.6,50z M194.5,55.8c0.4,0.8-1.1,2.9-2.8,3.8c0.5-1.5,0.8-2.6,1.2-3.8C193.5,55.8,194.1,55.8,194.5,55.8z
		 M192.9,49.7c-0.4,1.6-0.9,3.1-1.3,4.8c-1.1-0.2-2.1-0.5-3.2-0.7c0.6-1.6,1.1-3.1,1.7-4.8C191,49.2,191.8,49.4,192.9,49.7z
		 M186.1,43c1.2,0,2.3,0,3.7,0c-0.5,1.6-0.9,2.9-1.3,4.4c-1.2-0.3-2.2-0.5-3.5-0.8C185.4,45.3,185.8,44.2,186.1,43z M184.7,47.7
		c1.1,0.2,2.1,0.5,3.4,0.8c-0.6,1.7-1.1,3.2-1.6,4.9c-0.9-0.2-1.8-0.3-3.1-0.6C183.9,51,184.3,49.5,184.7,47.7z M186.1,54.3
		c-0.5,1.6-0.8,2.8-1.2,4.2c-0.8-0.1-1.4-0.3-2.2-0.4c0.1-1.4,0.3-2.8,0.4-4.4C184.1,53.9,185,54.1,186.1,54.3z M181.8,52.7
		c-1.8-0.7-3.4-1.2-5.2-1.9c1.3-1.3,2.4-2.3,3.9-3.8c0.5,0.1,1.6,0.2,2.8,0.4C182.7,49.1,182.3,50.7,181.8,52.7z"/>
	<path class="st3" d="M90.3,49.5c-1-1.3-2.3-2.1-3.9-2.2c-3.5-0.1-6.4,1.2-8.8,3.8c-0.4,0.5-0.9,1-1.3,1.5c-2.4-2.7-5.1-2.7-7.4-0.3
		c-2.1,2.3-2.7,5.1-2.9,8c-0.5,6,1.9,8.6,7.9,8.4c0.2,0,0.3,0.1,0.8,0.2c1,1.5,2.1,3.2,3.2,4.8c-0.1,0.2-0.2,0.4-0.3,0.6
		c-2.3-0.7-4.1,0.4-6,1.5c-5.9,3.5-11.9,6.6-17.2,11c-4.5,3.8-6.5,8.6-6.1,14.4c0.3,4.2,2.9,7.3,7,8.3c6.6,1.6,12.1-0.3,16.8-4.9
		c4.6-4.5,7.6-10,9.3-16.2c1.1-3.9,1.2-7.8-1.1-11.5c0.5-0.4,0.9-0.7,1.4-1.1c-1.7-2.7-3.5-5.4-5.2-8.1c4.4-4.1,6.1-12.1,2.8-15.6
		c1.3-1,2.6-2.1,4-3c1.5-0.9,3.1-1.3,4.6,0.1C88.5,50.2,89.4,50.3,90.3,49.5z M77.8,87.1c-1.6,7.1-5.1,13.3-10.6,18.1
		c-1.5,1.3-3.3,2.3-5.1,2.9c-5.5,2-10.7-1.7-11-7.5c-0.2-4.8,1.2-9,4.9-12.1c2.6-2.2,5.4-4.2,8.3-6.1c2.6-1.7,5.3-3.2,8.3-5
		c0.2,1.6,0.9,2.1,2.3,1.5c0.2-0.7,0.4-1.5,0.7-2.6c1.9,1.8,2.4,4,2.5,6.2C78.3,84.1,78.1,85.6,77.8,87.1z M75.2,66
		c-2.2,2.5-4.9,2-6.4-0.9c-1.9-3.9-0.2-10.8,3.5-13.5c2.7,0,2.4,2.4,3,4.5c0.6-0.5,0.9-0.8,1.2-1c0.5-0.2,1-0.2,1.7-0.3
		C78.4,58.9,78,62.8,75.2,66z"/>
	<path class="st3" d="M33.9,62.5c-1.2-0.9-2.4-2-3.4-3.1c-2.3-2.6-2.7-5.5-0.9-8.5c0.9-1.5,2.4-2.7,3.7-4c0.3-0.1,0.5-0.3,1.2-0.6
		c-0.4,0.7-0.5,1-0.7,1.3c-1.3,2.8-1.4,5.6,0.2,8.6c1.4,0,2.7,0,4.1,0c0.6-1.9,1.1-3.5,1.5-5.2c0.5-2.1-0.8-3.6-2.1-5.2
		c2.9-3,5.6-5.8,8.7-8.9c-0.9-0.1-1.4-0.3-1.6-0.2c-3.2,2.8-6.4,5.6-9.8,8.6c-3.3-0.2-5.5,1.9-7.3,4.7c-1.8,2.8-2.4,6.8,0.7,10.2
		c1.1,1.2,2.3,2.2,3.5,3.3c2.2,1.9,3.9,4.1,4.7,6.9c0.9,3.4,1.3,6.9,0.8,10.5c-0.4,2.5-1.3,4.7-3.2,6.5c-3,2.8-6.3,2.8-9-0.3
		c-2.9-3.2-4.2-7.2-5.1-11.2c0.9-0.7,1.6-1.3,2.3-1.9c1.9-1.9,2.6-4.2,1.8-6.7c-0.3-0.8-1.1-1.8-1.8-2.1c-2.4-0.9-4.9,0.6-5.2,3.2
		c-0.3,2.3-0.3,4.6-0.5,7c-2.5,1.3-5.3,0.3-8,0.6c2.6,1.8,5.5,1,8.4,1c0.2,0.8,0.3,1.5,0.6,2.2c1.1,2.5,2,5.2,3.4,7.5
		c2.2,3.5,5.6,4.8,9.7,4.3c4.2-0.5,7.3-2.5,9-6.5c1.3-3,1.2-6.2,0.9-9.3C40,70.1,38.2,65.7,33.9,62.5z M36.7,47.7
		c0.9,2.8,0.5,5.3-0.3,8.1C34.4,53.2,34.5,50.5,36.7,47.7z M19.9,65.7c0.8,0.5,1.4,0.6,1.6,1c1,2.1,0.4,4.4-1.8,6.6
		C18.4,70.9,20.4,68.6,19.9,65.7z"/>
	<path class="st2" d="M308.1,68.3c-1,0-2.1,0-3.5,0c0.5,2,0.9,3.7,1.3,5.5c-3.5,0-6.8,0-10.2,0c-1.3-4.4-1-8.7-1-12.9
		c2.7-0.3,4.8,2.3,7.6,0.7c-0.8-1.3-1.5-2.4-2.1-3.5c-0.7,0-1.2,0-1.8,0c-0.2,0.5-0.4,1-0.6,1.6c-1-0.2-2-0.3-3.2-0.5
		c0-4.2,0-8.3,0-12.5c2.5,0,5,0,7.4,0c0.2-0.1,0.4-0.1,1.1-0.4c-0.4,0.6-0.6,0.7-0.7,0.9c0.2,1,0.5,2,0.8,3.2c1.2,0,2.4,0,3.6,0
		c0-1.9,0-3.5,0-4.9c0.9-0.5,1.5-0.8,2.7-1.4c-2.2-1.1-3.8-0.6-5.5-0.2c-2.1,0.5-4.3,1-6.5,1.1c-2.9,0.1-5.8-0.3-8.7-0.3
		c-0.9,0-1.8,0.3-2.8,0.4c0.9,2.3,1.6,4.1,2.4,6.1c0.5,0,1.2,0,2.3,0c-0.4-1.7-0.7-3.2-1.1-4.7c0.3-0.1,0.6-0.2,0.9-0.2
		c0.4,0,0.7,0.2,1.1,0.3c0,4.3,0,8.5,0,12.5c-0.5,0.6-0.9,1-1.4,1.6c1.6,0.2,1.3,1.2,1.3,2.1c0.1,3.1,0.2,6.3,0.2,9.4
		c0,0.6-0.1,1.2-0.1,1.6c-1,0.4-1.9,0.8-2.7,1.2c-0.1,0.2-0.1,0.4-0.2,0.6c0.3,0.1,0.6,0.4,0.8,0.4c6.2,0.2,12.5,0.3,18.8,0.4
		c0.6,0,1.1-0.3,2.2-0.6C309.7,73.2,309,70.9,308.1,68.3z"/>
	<path class="st4" d="M179.8,45.6c0,0.1-0.1,0.2-0.1,0.3c1.2,0.1,2.4,0.2,3.7,0.3c0.6-2.2,1.2-4.2,1.9-6.3c0.6,0.1,1,0.1,1.4,0.2
		c0,0.7,0,1.2,0,1.8c1.2,0.1,2.3,0.1,3.1,0.2c1.1-1,0.6-2.8,2.6-2.5c-0.1,0.9-0.1,1.9-0.2,2.8c1.1,0.3,2,0.6,2.9,0.9
		c1.2,0.2,2.4,0.5,3.5,1.5c-0.8,0.3-1.4,0.2-1.9,0c-0.6-0.2-1.1-0.5-1.6-0.7c-1.1-0.2-2.3-0.5-3.4-0.7c-0.1,0.1-0.2,0.2-0.3,0.4
		c-0.3,1.4-0.7,2.7-1.1,4.2c1,0.2,1.8,0.3,2.6,0.5c0.3-1,0.5-1.7,0.7-2.4c0.5,0,0.9,0,1.4,0c0,1,0,1.9,0,3c1.1,0.1,2.1,0.2,2.8,0.2
		c3.9-6.1,7.6-11.9,11.4-17.7c-0.1-0.1-0.3-0.2-0.5-0.4c-4.3,1.1-8.7,2-12.9,3.4c-3.9,1.3-7.6,3.2-11.4,4.7
		c-1.2,0.5-2.5,0.5-3.7,0.8c-1.2,0.5-2.4,0.9-3.6,1.4c-0.6,0.6-1.2,1.3-1.8,1.9C177,44.2,178.4,44.9,179.8,45.6z"/>
	<path class="st4" d="M195.1,44.1c-1.1-0.2-2.3-0.5-3.4-0.7C192.9,43.6,194,43.9,195.1,44.1L195.1,44.1z"/>
	<path class="st3" d="M116.1,53.3c-0.9-0.1-1.6-0.2-2.7-0.4c0.2,2.9,0.4,5.5,0.6,8.1c-0.9,0-1.6,0-2.5,0c-0.4,0.9-0.7,1.9-1.3,2.7
		c-0.9,1.3-1.8,2.7-3,3.7c-2.6,2.1-6.3,0.8-6.9-2.5c-0.3-1.4,0.1-3,0.6-4.4c0.5-1.7,1.2-3.2,0.9-5.2c-0.9,0-1.7,0-2.4,0
		c-1.6-1.5-3.5-1.6-5-0.8c-3.6,1.9-6.3,4.5-6.7,8.9c-0.2,2.1,0.6,3,2.7,3.6c2.6,0.7,4.9,0.1,7.1-1.7c1.1,2.5,2.8,3.8,5.1,4.3
		c4.6,1,8.6-1.1,10.4-5.4c0.3-0.8,0.7-1.7,1-2.6c0.2,0,0.3,0.1,0.5,0.2c0.3,3.8,0.6,7.6,0.8,11.6c1,0,1.8,0,2.8,0
		c-0.1-1.1-0.2-1.7-0.2-2.4c-0.2-3.4-0.5-6.9-0.6-10.3c0-1.6,0.3-3.4,0.8-4.9c1.2-3.1,3.6-3.7,6.1-1.6c1.2,1,2.2,2.1,3.3,3.2
		c0.8,0.8,1.6,1.4,2.8,0.5C124.9,50,119.9,50.6,116.1,53.3z M93.6,65.7c-1.3,0.8-2.6,0.5-3.7-0.8c-0.2-5.2,4.2-10.6,7.7-9.2
		c-0.1,0.7-0.2,1.5-0.3,2.4c0.2,0.2,0.5,0.5,0.7,0.7C97.9,62.2,96,64.2,93.6,65.7z"/>
	<path class="st2" d="M226.3,66.8c-1.6-1-3.4-1.8-5-2.8c-3-1.7-6-3.4-8.9-5.3c-1.4-0.9-2.3-2.1-2-4c0.6-4.2,6-8.9,10.6-9
		c0,1.9,0,3.8,0,5.8c1,0,1.7,0.1,2.7,0.1c0-2.5,0-4.7,0-6.8c-0.5-0.2-0.9-0.4-1.2-0.5c-0.4-0.1-0.9-0.2-1.4-0.1
		c-5.4,0.2-9.6,2.8-12.3,7.2c-2.5,4.2-1.3,6.8,1.8,8.7c0.8,0.5,1.6,1.2,2.5,1.7c3,1.7,6.1,3.3,9.1,5c3.6,2.1,3.7,4.5,0.3,7
		c-0.3,0.2-0.6,0.5-1,0.6c-2.5,1.1-5,1.4-7.5,0.5c-0.4-0.7-0.7-1.3-1.1-2.2c-1.2,0.1-2.5,0.2-3.7,0.2c-0.3,2.2,1.1,2.7,2.2,3.2
		c4.7,1.8,9.3,1.3,13.7-1.1c0.8-0.5,1.6-1.2,2.2-2C229,70.7,228.7,68.3,226.3,66.8z"/>
	<path class="st2" d="M279.1,48.4c-2.4-2-4.9-2.2-7.4-1.9c-3.3,0.4-6,2.4-6,6c0,2.4-0.2,4.8-0.2,7.1c0,2.7,0.6,5.3,1.9,7.7
		c0.9,1.7,2.2,2.9,4.1,2.9c1.8,0,3.6-0.4,5.7-0.7c0.2,0.3,0.5,0.9,1,1.8c1-0.1,2-0.2,3-0.3c-0.5-2.9-1-5.4-1.5-8.1c-1,0-1.9,0-2.7,0
		c-1.5,2.1-2.8,4-4.1,5.9c-2.3-1.2-3.2-3.1-3.5-5c-0.4-3.7-0.7-7.4-0.6-11.2c0-3.8,2.2-5.3,5.6-5c3.1,1.8,3.8,4.8,4.7,7.8
		c0.9,0,1.8,0,2.5,0c0-3.6,0-6.9,0-10.6c-0.9,0.1-1.5,0.1-2,0.2C279.3,46.2,279.2,47.1,279.1,48.4z"/>
	<path class="st2" d="M247.8,50.5c-3.5-1.8-7.1-3.3-11.1-2.8c-0.1-0.9-0.3-1.6-0.4-2.4c-0.9,0-1.7,0-2.6,0c0.9,10,1.7,19.8,2.6,29.8
		c1.1-0.1,2-0.1,3.2-0.2c-0.4-5.3-0.8-10.3-1.2-15.9c0.9,0.2,1.7,0.3,2.3,0.5c2.6,1.1,5.2,1.2,7.9,0.4c2.1-0.7,2.8-1.8,2.8-3.9
		C251.2,53.5,250,51.7,247.8,50.5z M244.1,58.6c-2.2-0.9-4.3-2.3-6.5-3.5c0.1-2.3-0.9-4.4,1.4-6c2.4,0.4,4.6,1.5,6.6,2.8
		c1.4,0.9,2.1,2.4,2.1,4.1C247.8,58.1,246.2,59.5,244.1,58.6z"/>
	<path class="st3" d="M53.6,73.2c1-1.9,1.9-3.8,2.7-5.4c0.5,2.9,1,6,1.6,9.1c1.1,0,1.8,0,2.8,0c-2.4-7.5-1-15.1-1.4-22.6
		c-0.6-0.1-1-0.2-1.3-0.2c-0.3,0-0.5,0.2-0.8,0.3C55.3,61,54.5,68,50.1,74c-1.7-1.7-2.4-3.4-2.6-5.4c-0.6-6-0.3-12,1.3-17.9
		c-1.5-0.4-1.8-0.4-2.2,0.5c-0.3,0.6-0.5,1.3-0.6,2c-0.4,4.7-0.9,9.3-1,13.9c0,2,0.8,4,1.5,5.9c0.6,1.6,2.1,2.1,3.8,2.1
		C51.8,75.2,52.9,74.5,53.6,73.2z"/>
	<path class="st3" d="M161.8,88.8c-0.5-0.6-0.9-0.9-1.3-1.3c-1.7-2.1-3.7-3.1-6.4-2.4c-1.8,0.5-3.8,0.7-5.7,1
		c-1.2-1.1-3.1-1.4-3.7-4c0.2-0.2,0.7-0.6,1.1-1.1c1.2,0.9,1.9,2.4,3.2,1c-0.3-0.6-0.4-1.2-0.8-1.7c-0.7-1-1.5-1.9-2.4-2.8
		c-5.8-6.4-6.1-14.4-0.7-21c0.4-0.5,0.9-1,1.2-1.6c0.2-0.4,0.2-1,0.4-1.5c-0.6,0.1-1.2,0.2-1.4,0.3c-1.4,1.9-2.6,3.5-3.8,5
		c-1.4,1.9-2.4,4-2.3,6.4c0.2,5.2,1.1,10.1,5.2,13.8c0.3,0.2,0.4,0.6,0.6,0.9c-1,0.9-1.9,1.7-2.7,2.3c0.4,2.9,3.3,5.3,6,5
		c2-0.2,3.9-0.7,5.9-1.1c1.5-0.3,2.7,0.1,3.7,1.3c0.7,0.9,1.6,1.7,2.2,2.4c2.1,0.2,3.6-0.4,4.9-1.9c1.1-1.4,2.5-2.2,4.3-2.4
		c0-0.2,0-0.5,0-0.8C165.9,84.3,164.1,87,161.8,88.8z"/>
	<path class="st3" d="M153.9,52.1c-0.4-0.2-0.8-0.5-1.2-0.7c-1.9,0.9-5.4,0.4-6.8-1c-1.2-1.3-1.4-3.2-0.4-4.8
		c-5.2-4.2-6.9-10-7.9-16.1c-0.4-2.4,0.8-4.7,2.2-6.9c2.6-4.2,5.5-8.1,10.2-10.2c-0.5-0.1-0.9-0.3-1.4-0.4c-1.2,0.6-2.6,1.1-3.6,1.9
		c-3.6,2.7-6.2,6.4-8.2,10.3c-1.5,2.9-1.6,5.9-0.6,8.9c1.5,4.5,3.2,8.8,6.3,12.3c-0.3,4,0.7,6.5,4.4,7.2c0.1,0,0.3,0.2,0.4,0.2
		C149.6,53.3,151.9,53.9,153.9,52.1z"/>
	<path class="st2" d="M256.1,58c0,3.9,0,7.8,0,11.5c-0.7,0.4-1.1,0.7-1.7,1.1c0.5,0.8,0.9,1.5,1.4,2.4c1.2-0.1,2.3-0.1,3.3-0.2
		c0-9.1,0-17.9,0-26.8c-1.1,0-1.8,0-3.1,0C256.1,50.2,256.1,54.1,256.1,58z"/>
	<path class="st3" d="M195.5,85.6c-2.3-0.8-4.5-1.8-6.8-2.5c-1.2-0.4-2.6-0.5-4.2-0.9c0.1,2.3-2.6,3.4-1.6,5.6
		c2.8,1.4,10.8,1.4,14.1-0.1C197.4,86.2,196.4,85.9,195.5,85.6z M195.1,87.5c-3.4-0.3-6.8,1.2-10.2,0.2c-0.4-2.2-0.2-2.4,2.4-3.2
		c-0.5-0.1-0.8-0.2-1.1-0.3c-0.2-0.1-0.5-0.3-1.1-0.7c0.9-0.1,1.4-0.2,1.7-0.1c2.8,1.2,5.6,2.3,8.3,3.5
		C195.1,87.1,195.1,87.3,195.1,87.5z"/>
	<path class="st3" d="M152.8,81.4c0.4-0.1,0.9-0.2,1.3-0.3c0.2-4.2,0.3-4.3,2.3-5.8c0.8,1.2,1.8,2.2,2.3,3.5
		c0.5,1.2,0.5,2.7,0.8,4.3c0.6-0.1,1.4-0.2,2.6-0.3c-0.1-3-1-5.3-2.8-7.2c-1.4-1.5-3.5-1.7-5.2-0.6C152.3,76,151.8,78.7,152.8,81.4z
		"/>
	<path class="st3" d="M174.6,64.2c-4.1,1.8-8.1,4.2-12.7,4.8c-0.1,0-0.1,0.3-0.3,0.9c5.2-0.6,9.7-2.1,13.8-5.3
		C175,64.3,174.7,64.1,174.6,64.2z"/>
	<path class="st3" d="M155,68.9c-3.3-1.6-6.2-3.2-9.7-3.3C148,67.8,153.2,69.6,155,68.9z"/>
	<path class="st3" d="M166.5,49.1c-0.1,0.1-0.2,0.2-0.3,0.2c0.2,0.1,0.4,0.1,0.5,0.2C166.6,49.3,166.6,49.2,166.5,49.1z"/>
	<path class="st5" d="M139.8,22.6c-1.3,2.1-2.6,4.4-2.2,6.9c1.1,6,2.8,11.9,7.9,16.1c-1,1.6-0.9,3.5,0.4,4.8c1.3,1.4,4.9,2,6.8,1
		c1.7-2.7,2.7-3,5.1-2c0.1,0.1,0.3,0.2,0.4,0.4c0.3,0.1,0.6,0.3,0.9,0.4c0.4-0.2,0.9-0.3,1.3-0.4c0.3-0.2,0.7-0.3,1-0.5
		c1.4-0.3,2.8-0.6,4.1-0.8c0.5,0,0.9,0,1.4,0l0,0c0.4,0.1,0.8,0.3,1.1,0.4c0.6,0.4,1.1,0.7,1.6,1.1c0.3,0.3,0.6,0.6,1,0.8
		c0.6-0.1,1.2-0.2,1.8-0.4c0.6-0.2,1.2-0.3,1.7-0.6c1.1-0.5,2.2-1.1,3.2-2c-0.4-0.9-0.8-1.7-1.1-2.3c-1.2-0.4-2.3-0.8-3.3-1.1
		c-0.1-4.8-0.1-4.8,2.1-6.3c0.1-1.8,0.2-3.7,0.4-5.7c-0.5,0.1-1.1,0.2-1.6,0.2c-3.6,0.2-6.2-1.8-6.9-5.5l-0.2-0.1v-0.2
		c0-0.7-0.1-1.3-0.1-2l0-0.2l0.2,0c0.3,0.2,0.7,0.4,1,0.6c0.1,0.2,0.1,0.4,0.2,0.5c0.4,2.3,1.9,3.9,3.4,5.5c0.5,0.2,0.9,0.4,1.4,0.6
		c2-0.3,2.9-1.5,3.2-3.7c1-7.6-6.4-15.5-13.3-17.4c-1.3-0.4-2.9-0.4-4.2-0.2c-2.9,0.5-5.8,1.2-8.7,1.9
		C145.3,14.5,142.5,18.4,139.8,22.6z M164,36.5c0.5,0,0.9-0.1,1.2-0.1c0.8,1.1,0.3,2.9,1.9,3.3c2.3-0.3,0.3-3.5,2.9-3.7
		c0.4,1.6,0.7,3.1-0.7,4.2c-1.1,0.9-2.4,1-3.7,0.4C163.9,39.9,163.9,38.4,164,36.5z M147.7,31.1c1.3,2.1,2.5,4.2,4,6.1
		c1.1,1.4,2.4,2.9,4.9,2.3c2.2-4.2,0.7-8.4,0.1-12.6c0.2-0.2,0.4-0.4,0.7-0.5c0.2-0.1,0.4,0,1.1,0c0.4,3,1,6.1,1.2,9.1
		c0.1,2.1-0.4,4.1-2.8,5c-2.1,0.7-4.3,0.2-6-1.6c-2.3-2.5-3.9-5.4-5.2-8.6C146.7,29.5,147.2,30.3,147.7,31.1z"/>
	<path class="st5" d="M169.8,49.8c0.3,0.3,0.6,0.6,1,0.8c0.6-0.1,1.2-0.2,1.8-0.4c-0.6,0.2-1.2,0.3-1.8,0.4
		C170.5,50.4,170.2,50.1,169.8,49.8z"/>
	<path class="st5" d="M174.3,49.8c-0.6,0.2-1.1,0.4-1.7,0.6C173.2,50.2,173.8,50,174.3,49.8z"/>
	<path class="st6" d="M184.6,72.5c3.4-3.1,3-7.4,4.8-10.9c-1.2-0.4-2.1-0.7-3-1C184.8,65.2,184.3,68.3,184.6,72.5z"/>
	<path class="st6" d="M180.4,46.9c-1.5,1.5-2.6,2.5-3.9,3.8c1.8,0.7,3.4,1.3,5.2,1.9c0.5-2,0.9-3.6,1.4-5.4
		C182,47.1,180.9,47,180.4,46.9z"/>
	<path class="st6" d="M186.6,59.4c1.1,0.4,1.9,0.7,3,1.1c0.5-1.8,1-3.4,1.6-5.2c-1.3-0.2-2.2-0.4-3.3-0.6
		C187.4,56.4,187,57.9,186.6,59.4z"/>
	<path class="st6" d="M188.1,48.5c-1.2-0.3-2.2-0.5-3.4-0.8c-0.5,1.8-0.9,3.3-1.3,5.1c1.2,0.2,2.1,0.4,3.1,0.6
		C187,51.7,187.5,50.2,188.1,48.5z"/>
	<path class="st6" d="M191.5,54.4c0.5-1.7,0.9-3.2,1.3-4.8c-1-0.2-1.8-0.4-2.9-0.7c-0.6,1.7-1.1,3.2-1.7,4.8
		C189.4,54,190.4,54.2,191.5,54.4z"/>
	<path class="st6" d="M189.9,43c-1.4,0-2.5,0-3.7,0c-0.4,1.2-0.7,2.3-1.1,3.7c1.3,0.3,2.3,0.5,3.5,0.8C189,46,189.4,44.6,189.9,43z"
		/>
	<path class="st6" d="M197.8,50.2c-1.2-0.1-2.1-0.2-3.1-0.2c-0.4,1.6-0.9,3-1.3,4.6c0.7,0.1,1.3,0.2,2,0.4
		C196.1,53.4,196.9,51.9,197.8,50.2z"/>
	<path class="st6" d="M182.6,58.1c0.8,0.2,1.5,0.3,2.2,0.4c0.4-1.4,0.8-2.7,1.2-4.2c-1.2-0.2-2-0.4-3.1-0.5
		C182.9,55.3,182.8,56.7,182.6,58.1z"/>
	<path class="st6" d="M194.5,55.8c-0.5,0-1,0-1.6,0c-0.4,1.2-0.8,2.3-1.2,3.8C193.4,58.8,194.9,56.6,194.5,55.8z"/>
	<path class="st3" d="M196.7,44.8c0.6,0.2,1.2,0.3,1.9,0c-1.1-1.1-2.3-1.4-3.5-1.5c0,0.3,0,0.5,0,0.8l0,0
		C195.7,44.3,196.2,44.6,196.7,44.8z"/>
	<path class="st3" d="M196.7,44.8c-0.6-0.2-1.1-0.5-1.6-0.7l0,0l0,0C195.7,44.3,196.2,44.6,196.7,44.8z"/>
	<path class="st3" d="M167.1,27.1c0-0.1-0.1-0.2-0.2-0.3V27L167.1,27.1z"/>
	<path class="st4" d="M209.5,30.9c-0.3,0.1-0.5,0.2-0.7,0.3c0.1,0.1,0.3,0.2,0.5,0.4C209.3,31.4,209.4,31.2,209.5,30.9z"/>
	<path class="st3" d="M166.8,24.9c0.1-0.1,0.2-0.1,0.2-0.2l-0.2,0L166.8,24.9z"/>
	<path class="st7" d="M33.3,47c0.2,0.2,0.4,0.4,0.5,0.7c0.1-0.3,0.3-0.6,0.7-1.3C33.8,46.7,33.6,46.9,33.3,47z"/>
	<path class="st7" d="M302.1,46.7c0.1,0.2,0.3,0.3,0.5,0.5c0.1-0.2,0.2-0.3,0.7-0.9C302.6,46.5,302.4,46.6,302.1,46.7z"/>
	<path class="st8" d="M185.1,83.5c0.6,0.4,0.9,0.6,1.1,0.7c0.3,0.1,0.6,0.2,1.1,0.3c-2.6,0.8-2.8,1.1-2.4,3.2
		c3.4,1,6.8-0.5,10.2-0.2c0-0.2,0.1-0.3,0.1-0.5c-2.8-1.2-5.6-2.4-8.3-3.5C186.5,83.3,186,83.4,185.1,83.5z"/>
	<path class="st3" d="M156.8,40.6c2.4-0.9,2.9-2.9,2.8-5c-0.2-3.1-0.8-6.1-1.2-9.1c-0.7,0-0.9-0.1-1.1,0c-0.3,0.1-0.5,0.4-0.7,0.5
		c0.6,4.2,2.1,8.4-0.1,12.6c-2.5,0.6-3.8-0.9-4.9-2.3c-1.5-1.9-2.7-4.1-4-6.1c-0.5-0.8-1-1.6-2.1-0.7c1.3,3.2,2.9,6.1,5.2,8.6
		C152.4,40.8,154.7,41.3,156.8,40.6z"/>
	<path class="st3" d="M165.6,40.7c1.3,0.6,2.6,0.4,3.7-0.4c1.4-1.1,1-2.6,0.7-4.2c-2.5,0.2-0.6,3.4-2.9,3.7
		c-1.6-0.3-1.1-2.2-1.9-3.3c-0.3,0-0.7,0.1-1.2,0.1C163.9,38.4,163.9,39.9,165.6,40.7z"/>
	<rect x="111.1" y="101.5" class="st9" width="1.6" height="11.2"/>
	<path class="st9" d="M123.7,101.5c-1.2,0-2.1,0.5-2.5,1.4c-0.3,0.7-0.3,1.3-0.3,1.4v5.6c0,0.1,0,0.7,0.3,1.4
		c0.5,0.9,1.4,1.4,2.5,1.4s2.1-0.5,2.5-1.4c0.3-0.7,0.3-1.3,0.3-1.4v-0.7H125v0.7c0,0.3-0.2,1.4-1.3,1.4s-1.3-1.2-1.3-1.4v-5.6
		c0-0.2,0.2-1.4,1.3-1.4c1.1,0,1.3,1.1,1.3,1.4v0.7h1.6v-0.7c0-0.1,0-0.7-0.3-1.4C125.8,102,124.8,101.5,123.7,101.5z"/>
	<polygon class="st9" points="134.7,112.7 139.8,112.7 139.8,111.3 136.3,111.3 136.3,107.8 138.9,107.8 138.9,106.4 136.3,106.4 
		136.3,102.9 139.8,102.9 139.8,101.5 134.7,101.5 	"/>
	<path class="st9" d="M162.8,101.5c-1.2,0-2.1,0.5-2.5,1.4c-0.3,0.7-0.4,1.3-0.4,1.4v5.6c0,0.1,0,0.7,0.4,1.4
		c0.5,0.9,1.4,1.4,2.5,1.4c1.2,0,2.1-0.5,2.5-1.4c0.3-0.7,0.4-1.3,0.4-1.4v-0.7h-1.6v0.7c0,0.3-0.2,1.4-1.3,1.4s-1.3-1.2-1.3-1.4
		v-5.6c0-0.2,0.2-1.4,1.3-1.4s1.3,1.1,1.3,1.4v0.7h1.6v-0.7c0-0.1,0-0.7-0.4-1.4C164.9,102,164,101.5,162.8,101.5z"/>
	<path class="st9" d="M176.7,101.5h-2.9v11.2h1.6v-4.9h1.3c0.7,0,1.3,0.8,1.3,1.4v3.5h1.6v-3.5c0-0.9-0.4-1.6-1-2.1
		c0.5-0.5,1-1.2,1-2.4C179.6,101.5,176.8,101.5,176.7,101.5z M176.7,106.4h-1.3v-3.5h1.3c0,0,0.3,0,0.7,0.2c0.4,0.3,0.6,0.8,0.6,1.5
		C178,106,177.1,106.4,176.7,106.4z"/>
	<polygon class="st9" points="187.4,112.7 192.5,112.7 192.5,111.3 189,111.3 189,107.8 191.6,107.8 191.6,106.4 189,106.4 
		189,102.9 192.5,102.9 192.5,101.5 187.4,101.5 	"/>
	<path class="st9" d="M203.1,101.5l-2.4,11.2h1.6l0.8-3.5h2.3l0.8,3.5h1.6l-2.4-11.2H203.1z M203.3,107.8c0.3-1.4,0.6-2.7,0.9-4
		l0.9,4H203.3z"/>
	<path class="st9" d="M219.8,110.1l-2.1-8.6h-2.1v11.2h1.6v-6.8l1.7,6.8h2c0.6-2.3,1.1-4.6,1.7-6.8v6.8h1.6v-11.2H222L219.8,110.1z"
		/>
</g>
</svg>
