<svg id="Layer_1" data-name="Layer 1" xmlns="http://www.w3.org/2000/svg" width="145.89" height="301.06" viewBox="0 0 145.89 301.06"><defs><style>.cls-1{fill:#353842;}.cls-2{fill:#3d424b;}.cls-3{fill:#e17691;}.cls-4{fill:#3674a5;}.cls-5{fill:#f2edc7;}.cls-6{fill:#e4e0bd;}.cls-7{fill:#fefefe;}</style></defs><path class="cls-1" d="M23.3,136.14l6.19-9.66c-.79-8-1.23-16.78-2.6-25.39C24.71,87.33,21.79,73.68,19.43,60c-1.55-9-2.53-18.17-4-27.21-1.17-7.13-2.72-14.21-4.1-21.3-.25-1.27-.48-2.54-.82-4.36l4.57-1a12.3,12.3,0,0,1,1.53.79Q33.81,20.17,51,33.53c13.76,10.71,26.94,22,38.74,35,7.17,7.89,15.52,14.73,23.61,21.74,6.9,6,14.52,11.15,21.2,17.35,8.89,8.27,16.3,17.72,18.59,30.21,3,16.44,1.68,32-9,45.71a82,82,0,0,0-4.82,7.77l-.72,1.42,1.68-.27h7.24c1.81,4.34.1,6.91-2.94,8.69-4.42,2.6-9,4.93-14.16,7.74,2.16.79,4.08,1.92,6.1,2.16,5.84.69,9.43,4.13,12.87,8.61,11.74,15.26,7.12,37-1.93,49.42l-4,5.43,11.22,7.77v8c-13.59,17.49-31.78,18.05-51.23,12.63-1,.88-1.79,1.45-2.47,2.08s-1.3,1.36-1.76,1.85c-8.34,1.7-22.08-2.58-38.49-12-5,2.48-10.64,4.82-15.79,7.94a17.45,17.45,0,0,1-21.61-2.6v-6.2L38,287c-19.74-7.35-26.48-22.06-27.2-40.9C10,226.78,18.64,213.13,35.49,204c-4.2-3.76-8.32-7.32-7.06-14.09L34.75,187a66.92,66.92,0,0,1-12.6-28.45l-.68-1.38-.3-2.34,4.38-2.29c1.7,5.85,3,11.87,5.19,17.52,3,7.69,6,15.63,14.43,20L35,191.36c0,7.52,5.56,8.9,9,11.54,4-1.26,7.28-2.9,10.75-3.3,6.26-.72,12.59-.77,18.9-1,5.47-.17,10,2.05,13.94,5.74,1.32,1.22,3.15,1.9,4.83,2.87,3.42-7.37,6.77-9.31,13.62-7.75a70.85,70.85,0,0,1,11.29,4c9.62,4,21.93.57,26.68-7.61-3.23-.46-3.18-.39-6.42,1.78-2.52,1.68-5.16,3.49-8.27.44.21-1.13.14-2.38.68-3.26a140.76,140.76,0,0,1,8.07-12.53c9.54-12.44,12.94-26.28,9.79-41.6-1-4.82-2-9.9-4.31-14.12a72.77,72.77,0,0,0-21.15-23.9,34,34,0,0,0-18.69-6.45c-9.21-.48-17.86,2.07-26.37,4.84C55,108.3,37.19,121.34,25.61,142.16,21.74,141.35,24.13,138.12,23.3,136.14Zm9.87-29.6c.13.55.26,1.09.38,1.63.19,4.29.39,8.57.61,13.42l15-11.81,5.13-21.22-9.52-3.72c-1.89,5.47-3.67,10.62-5.45,15.75H34.07c3.63-5.26,4.86-11.22,5.72-17.35L28.5,78.41l4.33,22.32C32.94,102.67,33.06,104.6,33.17,106.54ZM71.54,58.32,69.06,70.55l15,9c-.28.53-.56,1.06-.85,1.59-6.1-.29-10-6.26-16.2-7-2.28,4.58-4.51,9.08-6.92,14l9.31,3.64L69,93.26l-10.56-2.2C57,96,55.55,100.94,54,106.38c6.47-2.61,11.83-5.2,17.45-6.9A12.5,12.5,0,0,0,80,92c2.64-6,5.68-11.8,8.73-18.07L72.66,57.36C56.33,41.56,38.14,28.17,18.71,14.91c3.11,21.18,6.07,41.35,8.92,60.78l12.88,4.94c2.07-5.47,4.09-10.77,6.22-16.38L34.82,57.34c5.78-1.7,8.83,2.8,13,3.61,3.4-3.15,1.68-10.34,9.36-11.6-2,5.24-3.52,9.45-5.19,13.92l12.5,5.33c1.09-2.75,2-5,2.9-7.32C68.13,59.37,69.11,57.84,71.54,58.32Zm31.59,143c-1.72,2.1-2.7,3.26-3.64,4.44C95.37,211,89.82,212.37,85,208c-6.51-5.88-13.73-7-21.83-5.95-3,.4-6,.79-8.87,1.48-3.3.78-6.46,2.15-9.77,2.78-4.9.93-9.45,2.16-13.31,5.72-11.27,10.4-15,23.38-13,38.08,2.1,15.65,8.05,28.76,25,33.53,2.34.66,4.19,2.06,3.21,4.92L30.6,295.45c-1.28,5.25,2.39,5.66,4.35,6.13,7.59-3.34,13.94-6.42,20.51-8.92,4.62-1.77,9.63-1.85,13.7,1.41,7.19,5.77,16.11,6.75,24.29,9.86,5.37-4.6,11.31-4.83,17.5-3.11,14.75,4.11,27,.67,36.75-11.85.09-1.86.19-3.9.25-5.08l-11-8.05c.94-2.54,1.36-5.22,2.76-7.2a51.84,51.84,0,0,0,8.81-21c2.3-12.81-1.94-23.26-11-32.33l-3.86,1.43L125.9,214c-.08-.69-.18-1.53-.28-2.32ZM110,93.21,91.52,77.57,83.26,95.06ZM50.79,65.79,44.92,82.18l11.24,3.88c2.46-5,4.75-9.65,7.15-14.54Z" transform="translate(-10.49 -6.06)"/><path class="cls-2" d="M23.3,136.14c.83,2-1.56,5.21,2.31,6l-.06,10.37-4.38,2.29C19.12,148.28,18.72,141.93,23.3,136.14Z" transform="translate(-10.49 -6.06)"/><path class="cls-2" d="M21.47,157.16l.68,1.38Z" transform="translate(-10.49 -6.06)"/><path class="cls-3" d="M103.13,201.36l22.49,10.34c.1.79.2,1.63.28,2.32l7.75,2.72,3.86-1.43c9,9.07,13.28,19.52,11,32.33a51.84,51.84,0,0,1-8.81,21c-1.4,2-1.82,4.66-2.76,7.2l11,8.05c-.06,1.18-.16,3.22-.25,5.08-9.72,12.52-22,16-36.75,11.85-6.19-1.72-12.13-1.49-17.5,3.11-8.18-3.11-17.1-4.09-24.29-9.86-4.07-3.26-9.08-3.18-13.7-1.41-6.57,2.5-12.92,5.58-20.51,8.92-2-.47-5.63-.88-4.35-6.13l15.83-6.86c1-2.86-.87-4.26-3.21-4.92-17-4.77-22.91-17.88-25-33.53-2-14.7,1.76-27.68,13-38.08,3.86-3.56,8.41-4.79,13.31-5.72,3.31-.63,6.47-2,9.77-2.78,2.91-.69,5.9-1.08,8.87-1.48,8.1-1.09,15.32.07,21.83,5.95,4.8,4.34,10.35,2.93,14.47-2.23C100.43,204.62,101.41,203.46,103.13,201.36Zm20.47,78.75c0-2.77.44-5.3-.09-7.6-1.44-6.32-6.42-10.44-11.3-8.91-5.58,1.74-10.26,5.33-12.41,11-1.07,2.79-.85,6.08-1.33,10.13l6.67-1c-1.87-8.7,2.11-13.78,8.88-17.5,4.12,3.42,4.85,8.3,5.3,13.54ZM96.43,253.85c.15-.66.29-1.32.44-2a193.11,193.11,0,0,0-26.23-14.62c-1.31-.58-3.26.25-4.91.43a278.54,278.54,0,0,0,25.48,16.08C92.55,254.5,94.67,253.85,96.43,253.85Zm47.1-20c-4.69-.81-5.31-.57-8.95,3.68-4.41,5.14-8.24,10.86-14.5,14.11,2.51,3.2,3.74,3.7,6.36,1.57C133.14,247.76,138.54,241.15,143.53,233.83Z" transform="translate(-10.49 -6.06)"/><path class="cls-4" d="M25.55,152.53l.06-10.37C37.19,121.34,55,108.3,77.34,101.08c8.51-2.77,17.16-5.32,26.37-4.84a34,34,0,0,1,18.69,6.45,72.77,72.77,0,0,1,21.15,23.9c2.33,4.22,3.32,9.3,4.31,14.12,3.15,15.32-.25,29.16-9.79,41.6A140.76,140.76,0,0,0,130,194.84c-.54.88-.47,2.13-.68,3.26,3.11,3.05,5.75,1.24,8.27-.44,3.24-2.17,3.19-2.24,6.42-1.78-4.75,8.18-17.06,11.62-26.68,7.61a70.85,70.85,0,0,0-11.29-4c-6.85-1.56-10.2.38-13.62,7.75-1.68-1-3.51-1.65-4.83-2.87-4-3.69-8.47-5.91-13.94-5.74-6.31.2-12.64.25-18.9,1-3.47.4-6.8,2-10.75,3.3-3.48-2.64-9-4-9-11.54l10.21-1.3c-8.41-4.38-11.41-12.32-14.43-20C28.53,164.4,27.25,158.38,25.55,152.53Zm33,19.05c5.3-8.9,7.13-23.46,4.22-33.59a23.91,23.91,0,0,0-3.21-.15c-.48,0-.93.54-1.34.8-.76,25.09-.76,25.09-5,31.2H47.51c-6.81-4.4-10.17-10.11-9.48-18.06.2-2.29-.46-4.66-.73-7l-1.69-.54c-.94,1.24-2.43,2.38-2.69,3.76a36.88,36.88,0,0,0-.2,7.44C32.9,166.43,43.81,177.75,58.59,171.58Zm68.74-29.19c-.18,3.9-.16,7.15-.51,10.36-.71,6.54-6.61,13.41-12.25,14.53-4.82,1-10.62-2.71-13.51-9.55-1.66-3.93-2.26-8.37-2.91-12.65s-1.54-5.14-6.3-4.39a37.54,37.54,0,0,1,.4,6.14c-.55,5.72,1.73,10.5,4.63,15.07,7.13,11.23,24.81,11.5,31.92.09,3.9-6.26,3-12.7,2.5-19.6ZM66.5,174.8C65,181.88,68.65,186.23,73,190c10.58.87,17.43-4,16.54-11.79l-3.45-.2c-.65,5.94-4.17,8.71-10.18,9.35-1.21-1.9-2.72-3.67-3.54-5.71s-1-4.37-1.47-6.87Z" transform="translate(-10.49 -6.06)"/><path class="cls-5" d="M71.54,58.32c-2.43-.48-3.41,1-4.15,3-.89,2.29-1.81,4.57-2.9,7.32L52,63.27c1.67-4.47,3.23-8.68,5.19-13.92-7.68,1.26-6,8.45-9.36,11.6-4.17-.81-7.22-5.31-13-3.61l11.91,6.91c-2.13,5.61-4.15,10.91-6.22,16.38L27.63,75.69c-2.85-19.43-5.81-39.6-8.92-60.78,19.43,13.26,37.62,26.65,54,42.45Z" transform="translate(-10.49 -6.06)"/><path class="cls-5" d="M72.66,57.36,88.77,73.9C85.72,80.17,82.68,86,80,92a12.5,12.5,0,0,1-8.61,7.51c-5.62,1.7-11,4.29-17.45,6.9,1.57-5.44,3-10.39,4.43-15.32L69,93.26l.42-1.57-9.31-3.64c2.41-4.87,4.64-9.37,6.92-14,6.16.78,10.1,6.75,16.2,7,.29-.53.57-1.06.85-1.59l-15-9,2.48-12.23Z" transform="translate(-10.49 -6.06)"/><path class="cls-5" d="M34.07,100.59h5.29c1.78-5.13,3.56-10.28,5.45-15.75l9.52,3.72L49.2,109.78l-15,11.81c-.22-4.85-.42-9.13-.61-13.42-.12-.54-.25-1.08-.38-1.63-.11-1.94-.23-3.87-.34-5.81Z" transform="translate(-10.49 -6.06)"/><path class="cls-6" d="M110,93.21,83.26,95.06l8.26-17.49Z" transform="translate(-10.49 -6.06)"/><path class="cls-5" d="M50.79,65.79l12.52,5.73c-2.4,4.89-4.69,9.55-7.15,14.54L44.92,82.18Z" transform="translate(-10.49 -6.06)"/><path class="cls-6" d="M34.07,100.59l-1.24.14L28.5,78.41l11.29,4.83C38.93,89.37,37.7,95.33,34.07,100.59Z" transform="translate(-10.49 -6.06)"/><path class="cls-6" d="M33.17,106.54c.13.55.26,1.09.38,1.63C33.43,107.63,33.3,107.09,33.17,106.54Z" transform="translate(-10.49 -6.06)"/><path class="cls-7" d="M140.25,192.42l-1.68.27.72-1.42Z" transform="translate(-10.49 -6.06)"/><path class="cls-1" d="M123.6,280.11l-4.28-.32c-.45-5.24-1.18-10.12-5.3-13.54-6.77,3.72-10.75,8.8-8.88,17.5l-6.67,1c.48-4,.26-7.34,1.33-10.13,2.15-5.65,6.83-9.24,12.41-11,4.88-1.53,9.86,2.59,11.3,8.91C124,274.81,123.6,277.34,123.6,280.11Z" transform="translate(-10.49 -6.06)"/><path class="cls-1" d="M96.43,253.85c-1.76,0-3.88.65-5.22-.1a278.54,278.54,0,0,1-25.48-16.08c1.65-.18,3.6-1,4.91-.43a193.11,193.11,0,0,1,26.23,14.62C96.72,252.53,96.58,253.19,96.43,253.85Z" transform="translate(-10.49 -6.06)"/><path class="cls-1" d="M143.53,233.83c-5,7.32-10.39,13.93-17.09,19.36-2.62,2.13-3.85,1.63-6.36-1.57,6.26-3.25,10.09-9,14.5-14.11C138.22,233.26,138.84,233,143.53,233.83Z" transform="translate(-10.49 -6.06)"/><path class="cls-1" d="M58.59,171.58c-14.78,6.17-25.69-5.15-25.87-16.14a36.88,36.88,0,0,1,.2-7.44c.26-1.38,1.75-2.52,2.69-3.76l1.69.54c.27,2.34.93,4.71.73,7-.69,7.95,2.67,13.66,9.48,18.06h5.73c4.26-6.11,4.26-6.11,5-31.2.41-.26.86-.77,1.34-.8a23.91,23.91,0,0,1,3.21.15C65.72,148.12,63.89,162.68,58.59,171.58Z" transform="translate(-10.49 -6.06)"/><path class="cls-1" d="M127.33,142.39h4c.55,6.9,1.4,13.34-2.5,19.6-7.11,11.41-24.79,11.14-31.92-.09-2.9-4.57-5.18-9.35-4.63-15.07a37.54,37.54,0,0,0-.4-6.14c4.76-.75,5.64.07,6.3,4.39s1.25,8.72,2.91,12.65c2.89,6.84,8.69,10.51,13.51,9.55,5.64-1.12,11.54-8,12.25-14.53C127.17,149.54,127.15,146.29,127.33,142.39Z" transform="translate(-10.49 -6.06)"/><path class="cls-1" d="M66.5,174.8h4.43c.5,2.5.64,4.82,1.47,6.87s2.33,3.81,3.54,5.71c6-.64,9.53-3.41,10.18-9.35l3.45.2c.89,7.81-6,12.66-16.54,11.79C68.65,186.23,65,181.88,66.5,174.8Z" transform="translate(-10.49 -6.06)"/></svg>