<svg id="Layer_1" data-name="Layer 1" xmlns="http://www.w3.org/2000/svg" width="588.48" height="521.16" viewBox="0 0 588.48 521.16"><defs><style>.cls-1{fill:#33739c;}.cls-2{fill:#353842;}.cls-3{fill:#393c46;}.cls-4{fill:#3b3e48;}.cls-5{fill:#363d4a;}.cls-6{fill:#363c48;}</style></defs><path class="cls-1" d="M355.19,117.53c11.62-2.5,23.2-3.39,34.67.77,6.92,6.81,16.1,5.15,24.35,5.84,20.64,1.73,39.67,7.49,57.1,18.8,22.75,14.76,48.33,25.57,66.71,46.44,34.23,38.86,42.84,85.26,36.37,134.75-5.66,43.25-21.26,82.93-51.64,115.44-9.29,9.94-11.06,19.95-3.41,31.23,6.37,9.39,6.27,18.21-1.27,26.91s-16.87,13.18-27.82,9c-29.08-11.09-59-9.37-89.13-7.9a64.54,64.54,0,0,0-29.6,8.64c-21.25,12.11-42.65,16.62-65.83,3.72-14.94-8.31-31.45-7.08-47.12-1-20.57,7.93-41.18,2.4-61.72.92-8.73-.63-12.38-7.84-13.57-15.84-1.71-11.46,8.9-9.47,16.26-11.84-9.71-17.66-17.88-34.13-24.59-51.33A259,259,0,0,1,166.1,268.3c15.12-55.48,52.29-98.91,103.85-127.2,21.59-11.85,47-11.19,70.44-17.24C345.49,122.54,352.53,124.84,355.19,117.53Z" transform="translate(0 -3.66)"/><path class="cls-2" d="M355.19,117.53c4.32,7.38-2,7.63-6.14,8.5-12.95,2.73-25.91,5.8-39,7.38-42.21,5.09-70.67,31.44-97.65,60.93C163.94,247.26,158.07,310.4,166,377.58c4.44,37.57,18.25,71.2,38.34,102.71,1.73,2.72,5.65,5.51,2.34,8.81-1.62,1.61-5.38,1.09-8.17,1.49-3.87.55-7.49-3.62-11.65-.68-.34,14,6.64,18.84,20.3,18.49,20.5-.53,40.67,2.67,61.1-5.76,13-5.37,29-3.07,41.81,5.22,20.12,13,39.15,7,57-3.34,13.13-7.58,26.25-11.56,41.16-10.61,28.54,1.81,57.78-4.84,85.24,9.85,9.33,5,16.7-3.22,23-10.79s4-13.22-1.18-19.6c-10.63-13.05-8.74-24,3.28-36.2,48.47-49.1,72.58-151.78,34-219.21-9.59-16.74-20.71-32.36-37.48-42.41-27.12-16.24-51.74-37.48-83.71-44.36-12.35-2.66-25.09-3.55-37.64-5.33-4.7-.66-8.38-2.06-3.91-7.56,56.74-2.51,103.56,22,144.57,57.26,57.46,49.37,62.91,113.35,44.89,182.33-8.2,31.4-25.05,58.1-44.57,83.32-8.08,10.43-13.18,19.52-2.34,31.84,6.57,7.47,5.66,17.54-1.43,25.29-11.59,12.68-25.7,20-43.28,15.18-12.16-3.35-23.8-8-36.52-9.94-27.65-4.26-54.34-2.35-79.3,10.39s-49.11,15.89-74,.63c-9.6-5.9-21-5.74-30.2-1.86-28,11.84-55.83,4.76-83.77,1.79-9.61-1-13.77-8.52-15.12-16.77-1.1-6.67-4.49-15,5.59-19,8-3.19,4.3-9.22,2.46-14.07-6.29-16.65-13.9-32.85-19.36-49.75-16.6-51.33-17.65-104.42-3.24-155.27,11.94-42.16,42.57-74.66,76.15-103.39,18.24-15.6,38.59-23.62,62-27.13C313.41,126,333.76,118.81,355.19,117.53Z" transform="translate(0 -3.66)"/><path class="cls-3" d="M105.18,65c2.85-1.52,5.56-3.47,8.58-4.5,12.69-4.35,27.9-10,38.21-1.82,10,7.91,1.82,22.8.33,34.47-.56,4.47-2.45,8.74-1.32,13.46,13.58-1.41,24.19-16,43-8.42-22.81,11.14-39.21,27.91-65.05,30.36,4-19.63,7-38.22,11.92-56.25,2.68-9.74-1.47-9.75-8-8.69-8.88,1.45-17.67,3.41-26.5,5.16Z" transform="translate(0 -3.66)"/><path class="cls-4" d="M0,10.43C9.67,5,17.2,5.45,24.44,4.16,38.23,1.7,41.55,8.49,38.1,19.36c-5,15.91,1.13,17.48,14.15,13.22,2-.66,4.51.28,12,1C46.9,45.37,31,50,12.83,58.12c5.65-16.67,10.32-30.49,15.57-46Z" transform="translate(0 -3.66)"/><path class="cls-5" d="M185.13,317.26c40.31,0,77.27,0,114.23.07,3.15,0,7.49-1.38,8.81,3.1,1,3.35-2.08,4.89-4.58,6.31C286.55,336.43,203.33,331.25,185.13,317.26Z" transform="translate(0 -3.66)"/><path class="cls-2" d="M467.83,324q-27,0-53.92,0c-4.8,0-10.94-.44-11.18-5.73-.31-7,6.61-4.64,10.69-4.79,35.23-1.3,70.56,2.92,105.77-2.16,4.59-.66,11.69,2.41,11.77,8.14.09,6.82-6.91,4.37-11,4.44C502.61,324.16,485.22,324,467.83,324Z" transform="translate(0 -3.66)"/><path class="cls-6" d="M391.06,409.18c-25.9,12.75-52.07,9.09-78.23,1.8-3-.82-5.64-2.15-4.05-5.92s5-4.57,8.67-4.16Q354.26,405,391.06,409.18Z" transform="translate(0 -3.66)"/></svg>