<svg id="Layer_1" data-name="Layer 1" xmlns="http://www.w3.org/2000/svg" width="385.16" height="347.91" viewBox="0 0 385.16 347.91"><defs><style>.cls-1{fill:#363a44;}.cls-2{fill:#8ccdce;}.cls-3{fill:#363943;}.cls-4{fill:#373c45;}</style></defs><path class="cls-1" d="M7.36,169.17c6-6.57,4.68-15.3,6.67-23C20.7,120.27,36.07,99.44,52.2,79c19-24,40.16-45.34,67.89-59.49,11-5.64,21.72-11.47,34.62-10.68,3.06-1.12,6.06-2,7.56,2.21-13.69,9.46-29.85,14-44.06,22.88A163.41,163.41,0,0,0,74.84,73.42C56,97.94,34.67,121,28.91,153.22c-8.07,45.24.25,87.14,24.05,126.17,5.13,8.41,11.13,16.28,16.22,24.73,2.46,4.08,6.54,8.89,2.46,13.37-3.86,4.25-9.21,1.34-13.82-.35a18.48,18.48,0,0,1-5-2.73c3.07,4,7.09,7.28,6.25,12.87-1.12,2.39-2.7,3.69-5.43,2.36-8.39-.46-12.79-6.51-16.95-12.52-3.8-5.5-5-11,3.59-13.26,4.56-1.18,7.5-3.19,4.85-8a359.85,359.85,0,0,1-37.79-103Z" transform="translate(-7.36 -4.25)"/><path class="cls-1" d="M53.66,329.64l4.15-3.44c13.12-1.9,26.87-2.67,39,1.71,11.49,4.17,22,4.38,33.21,2,16.61-3.49,32.62-1.58,47.57,6.17,7.57,3.93,14.67,4.55,22.78,2.48,21.19-5.42,42.12-7.46,64.33-2.81,18.59,3.89,37.85-2.54,55.68-2.75,1.7-2.49,1.92-3.71,1.08-4.28-16.92-11.45-17.07-11.88-1-24.17,27.37-21,42.22-50.38,55.11-81.13a23.06,23.06,0,0,0,1.59-10.2C374.21,164,364.82,117.4,327.44,80.83c-20.93-20.49-42.37-39.77-68.84-53.19-25.2-12.78-51.32-16.92-79.06-13-6.21.88-12.81,3-17.9-3.06L154.71,8.8C209.06-2.44,258.89,6.58,302.49,42.3c11.8,9.66,22.95,20.12,34.19,30.44,39.12,35.93,54.32,82.45,55.81,133.55,1,35.63-20.52,62.68-41.52,89-3.37,4.22-7.55,7.8-11.31,11.71-5.28,5.5-15.61,10.12.88,15.92,8.26,2.9,5.84,14.15-3.66,16.33-26.43,6.07-53.12,10-80.35,5.46a97.58,97.58,0,0,0-48,3.93c-16.21,5.48-31.71,5.15-46.15-5.66-11.89-8.89-24.86-2.81-37.23-1.25-13.57,1.71-25.8,4.62-39.08-4.95C77.82,330.9,63.75,336.23,53.66,329.64Z" transform="translate(-7.36 -4.25)"/><path class="cls-2" d="M161.64,11.56c19.6-.08,38.94-4.46,58.86-.83,23.89,4.36,45,14,64.62,27.63,20,13.88,37.54,30.53,53.73,48.51,31.78,35.28,41.16,79.29,42.26,124.36.59,24.68-15.6,46.17-29.52,66.36-10.84,15.71-23.86,29.91-45,40.06,8.38,2.89,13.2,4.43,17.93,6.22,3.21,1.21,6.75,2.43,6.38,6.93s-4,5.91-7.36,5.8c-23.56-.72-47,8.73-70.53,1.52-17.17-5.26-33.29.18-49.33,4.08-10.43,2.54-18.63,3.28-28.6-2.95C157.07,328,137,332.3,117.48,336c-2.89.54-7.3,2.78-8.38,1.67-14.73-15.08-35.51-2.16-51.29-11.44C55,321.14,48.41,319,47,312.76c9.62-6.77,15.36,7.8,25.06,3.95-4-10.45-11.52-18.28-17.36-27.11C24.05,243.24,13,193.21,28.52,139.21c9.54-33.14,33.79-57.55,55.86-82.51C104.82,33.59,130.31,17.07,161.64,11.56Z" transform="translate(-7.36 -4.25)"/><path class="cls-3" d="M146.06,136.65c-.5,36.21-19.66,62.83-47.16,68.82-22.3,4.85-37.24-3.64-44.6-25.4a140.58,140.58,0,0,1-7.76-41.87c-.11-4.83.87-8.91,6.52-9.86,6.49-1.09,6.7,3.71,7.93,8.08,4.1,14.62,7.62,29.5,13,43.64,7.37,19.23,19,21.84,33.18,6.62,17.33-18.6,28.28-40,17.3-66.46-1.67-4,.16-5.82,3.45-6.06,5.33-.37,12.47-4.78,14.89,4C144.81,125.2,145.4,132.63,146.06,136.65Z" transform="translate(-7.36 -4.25)"/><path class="cls-3" d="M217.5,145.1c.17-3.77.08-6.75.49-9.66.6-4.29-2.24-10.07,6-10.87,7.81-.75,8.61,3.36,9.69,9.35,2.94,16.36,3.67,33.21,12.3,48.29,13.83,24.16,30.13,26,48.83,5.07,12.06-13.52,17-29.62,17.53-47.4.13-4-1.71-9.46,5.52-9.73,6.69-.26,8,4.26,9,9.4,7.95,40-30.85,79.06-70.38,70.73C237,206.19,221.73,185.71,218.37,159,217.76,154.16,217.75,149.21,217.5,145.1Z" transform="translate(-7.36 -4.25)"/><path class="cls-4" d="M194,241c-.39-4.18-.67-6.61-.83-9.06-.27-4-4.51-9.1,1.36-11.48,6.5-2.64,8.25,3.68,10.35,7.81,6.92,13.63,2.2,31.56-10.8,42.24-11.68,9.59-27.44,10.91-38.31,3.21C144.65,265.93,138.34,243.94,143,231c1.38-3.85,3-5.9,7.19-5.41,3.77.44,4.68,2.94,4.85,6.13.3,5.89.16,11.85,1,17.65,1.37,9.12,4.86,18.63,14.76,19.7,8.73.94,15.06-6.61,19-14.2C192.22,250.22,192.91,244.67,194,241Z" transform="translate(-7.36 -4.25)"/></svg>