<svg id="Layer_1" data-name="Layer 1" xmlns="http://www.w3.org/2000/svg" width="465.63" height="403.17" viewBox="0 0 465.63 403.17"><defs><style>.cls-1{fill:#353842;}.cls-2{fill:#e17690;}.cls-3{fill:#373943;}.cls-4{fill:#3c3b45;}.cls-5{fill:#393944;}.cls-6{fill:#3b3a45;}</style></defs><path class="cls-1" d="M472.09,263.4c0,5.41.55,10.89-.11,16.22-1.37,10.91-6.83,18-19,17.82q-10.57-.13-21.15.12c-8.6.22-13.7,4.37-16.19,12.95-3,10.48,4.89,11.92,11,14.19,19.83,7.36,31.18,20.28,30.77,42.36-.17,9-4.4,14.88-12.32,16.8-16.26,3.95-32.7,7.9-48.7-2-8.05-5-15.28-4.62-22.95,3.24-18,18.44-41.24,22.35-63.46,9.68-14.58-8.32-24.89-8.11-38.85,2.59-18.82,14.42-42.21,13.08-63.85,6.19-20.34-6.46-41.32-7.63-62-11.42-11.82-2.17-22,2.26-32.07,8.21C87,415.91,65.6,405.78,45.44,385.4c-4.63-4.68-.5-6.5,1.57-9.14,10.32-13.12,15.59-28.18,17.77-44.56,1.75-13.2-1.27-18.35-16.31-14.17C22.29,324.8,9.16,314.47,6.94,288c-.81-9.69,1.38-16.64,11.29-20.46C34,261.41,38.83,249.06,39,232.71c.21-29.7-1.08-59.43,3.06-89.08,5.51-39.48,26.26-68.79,60.36-87.27C149,31.1,197.71,10.75,251.59,5.84a113.82,113.82,0,0,1,37.08,2.58C340.52,21,387.59,42.56,421.34,86.21c12.76,16.5,16.4,36.17,18.13,56.27.75,8.62,0,17.37.94,26,2.28,21.43-.25,43.87,22.89,58.56C474.71,234.25,472.26,250.42,472.09,263.4Z" transform="translate(-6.79 -5.35)"/><path class="cls-2" d="M86.31,281.9c-8.88-1.94-12.44,4.61-17.12,8.59-2.83,2.4-4.41,6.21-7.07,8.87-8,8-17.17,18-29,12.65C19.6,305.89,22.58,290.81,22,278.63c-.27-5.27,5-6.67,8.82-8.29,16.31-6.89,21.13-19.88,21.4-36.5.41-24.32,1.53-48.7,2.07-73,1.14-51.55,28-85.5,71.39-105.22,46.3-21,92.8-48.48,146.47-40.78,56.15,8,105.75,31.13,138.28,80.88,9.67,14.79,13.14,32.12,13.07,49.61-.07,17.92,1.51,35.62,3.44,53.37,1.14,10.45,6.59,17.68,14.67,24.06,14.33,11.31,21.06,46.79,12.51,62.52-5.82,10.7-39.29,7.12-49.2-5.17-5.65-7-7.37-15.55-9.81-23.82-1.6-5.42-3.86-12.18-10.15-10-6.66,2.33-.67,8.51.36,12.28,3.15,11.42,7,22.93,17.54,30.18,4.16,2.85,5,5.08,2.32,10.43-8.93,17.73-7.25,22.46,10.92,30.83,15.52,7.14,26.58,16.23,24.68,35.46-.84,8.51-4.12,13.32-12.76,13.24-6.44-.07-13.19.18-19.24-1.62-20-5.94-38.21-9.34-54.72,9.42-8.55,9.73-22.12,7.77-33.5,2.48-21.84-10.16-41.89-14.36-63,3.95-12.5,10.85-29.84,7.13-45.36,3.29-25.78-6.38-51.79-10.83-78.46-11.24-11.24-.18-21.93,1.5-30.5,8.82-11.57,9.88-21.63,4.55-30.2-3.09-7.65-6.83-8.77-16-4.3-26.4,8.2-19,13.64-38.46,6.34-59.67C71.78,295.17,84.37,291.13,86.31,281.9Z" transform="translate(-6.79 -5.35)"/><path class="cls-3" d="M204.51,239.8c.77-25.19,13.68-39.71,37.75-42.46,21.3-2.44,48.95,14.76,53.42,34,1.27,5.5,4.94,13.51-3.43,16.68-9.09,3.45-12.09-3.29-13.84-10.75A36.26,36.26,0,0,0,269,220.5c-7.49-7.86-17-13.16-27.53-10-9.72,2.92-12,13-13.28,22.33-.66,4.8-1.86,9.56-2.09,14.38-.41,8.14-4.48,11-12.38,11.09-9.2.13-8.52-6.28-9.19-12A60.65,60.65,0,0,1,204.51,239.8Z" transform="translate(-6.79 -5.35)"/><path class="cls-3" d="M296.65,331.38c0-2.7,0-5.4,0-8.1.15-5,.42-9.83,7.41-10.15,7.52-.35,8.88,4.38,9.42,10.28s1.52,11.75,1.95,17.66c.78,10.55,6,16.27,16.8,14.49,10.56-1.74,18.11-6.8,17.08-19.34-1-12.12-8.69-22.07-10.56-33.79-.61-3.8-6.94-9.44,1.61-11.66,6.84-1.78,10.55,1,12.27,8.7,1.86,8.29,6.13,16,9.4,24,8.91,21.68,1.68,35.69-21.14,40.92C310.81,371.3,296.73,360.8,296.65,331.38Z" transform="translate(-6.79 -5.35)"/><path class="cls-3" d="M249.17,128.39c-6.16,1-10.67-.82-14.93-3.25-13.61-7.75-27.14-15.63-40.73-23.41-5.71-3.27-10.08-7-4.89-14,4.57-6.14,9.43-5.33,15.11-1,7.74,5.87,15.88,11.23,24,16.61,24.61,16.35,16.17,16.35,36.83-4.29,5-5,9.5-10.34,14.24-15.52,4.22-4.61,9.81-6.24,14.41-2.21,6.22,5.43-1.73,8.11-4,11.14-7.19,9.44-15.08,18.36-22.86,27.35C261.55,125.3,256.19,129.82,249.17,128.39Z" transform="translate(-6.79 -5.35)"/><path class="cls-4" d="M80.87,205.12c.56-5.08-1.73-12.26,5.49-13.46,8.12-1.35,6.49,6.68,8.07,11.25,1,3,.95,6.54,2.41,9.28s3.89,6.1,6.41,6.59c4.21.8,3.68-4.14,5.17-6.74,3.35-5.84,2.2-18.78,12.71-14.5,9.35,3.81,5.63,14.67,3,23-4.12,13.24-14.83,13.08-25.09,11.22C84.7,229.18,81,218.11,80.87,205.12Z" transform="translate(-6.79 -5.35)"/><path class="cls-5" d="M197.34,167.76c-35.4,7.59-63.92-13.68-95.13-24.17C136.14,141.81,165.91,158.11,197.34,167.76Z" transform="translate(-6.79 -5.35)"/><path class="cls-6" d="M367.41,133.81c-24.85,12-43.38,38.94-76.52,31.17C315.42,152.26,336.52,131.4,367.41,133.81Z" transform="translate(-6.79 -5.35)"/><path class="cls-4" d="M122,339c1.11-1.57,1.71-2.45,2.34-3.31,3.17-4.38,1.5-12.63,10.09-12.7,2.81,0,5.77.42,6,3.81.47,7,1,14.48-4.9,19.64-9.38,8.29-18.8,7-27-2s-9.92-19.79-3-29.53c3.71-5.23,8.15-1,10.38,4.42C118.32,325.33,116.44,332.45,122,339Z" transform="translate(-6.79 -5.35)"/></svg>